<?xml version="1.0" encoding="UTF-8"?>
<svg id="Layer_2" data-name="Layer 2" xmlns="http://www.w3.org/2000/svg" viewBox="0 0 736.36 418.52">
  <defs>
    <style>
      .cls-1, .cls-2 {
        fill: #fafafa;
        fill: #fafafa;
      }

      .cls-2, .cls-3 {
        stroke: #1d1d1b;
        stroke-linecap: round;
        stroke-linejoin: round;
        stroke-width: 10px;
      }

      .cls-3 {
        fill: none;
      }
    </style>
  </defs>
  <g id="SVGs">
    <g>
      <g>
        <g>
          <path class="cls-2" d="m647.52,179.82c-.92-.2-1.85-.39-2.78-.57,12.87-11.06,24.15-27.4,32.37-50.92,2.01-5.76,3.32-11.79,3.96-17.97,4.18-40.06-19.89-85.92-57.96-99.06-10.07-3.48-21.2-4.81-33.15-5.91-43.96-4.06-105.26,23.4-155.46,90.74-106.37,121.71-19.45,223.19-19.45,223.19,0,0,97.13,125.87,213.51,86.53,6.91-2.33,13.52-5.42,19.95-8.88,16.71-9.01,32.87-20.25,47.09-33.01,64.86-58.17,37.13-166.02-48.09-184.15Z"/>
          <g>
            <path class="cls-3" d="m606.23,40.31s34.51-.74,35.49,29.54"/>
            <line class="cls-3" x1="643.67" y1="84.83" x2="643.67" y2="84.5"/>
          </g>
        </g>
        <g>
          <path class="cls-3" d="m518.54,253.23c13.09-25.89,27.85-43.89,43.38-55.89,26.64-20.62,55.57-23.56,82.18-18.38"/>
          <path class="cls-3" d="m561.93,197.35c-41.38,10.07-55.32-19.42-56.07-19.86"/>
        </g>
      </g>
      <g>
        <g>
          <path class="cls-1" d="m255.41,296.16l-.94-.21s-33.37,3.37-54.95-11.6l-.26.75c40.64,232.7-344.83,116.25-127.27-88.33h.04c-1.22-37.8,3.39-88.33,29.49-127.97,13.47-20.45,33.64-42.89,60.71-54.29,13.97-5.89,29.77-7.3,44.64-3.63,22.23,5.52,50.47,24.67,46.93,61.67l.16.08c18.49-30.95,54.61-74.4,108.42-65.48,71.24,11.81,88.82,90.21,31.37,194.73l.43.19c179.24,200.71-182.02,300.04-141.65,105.59.3-1.46,1.47-6.1,2.89-11.51Z"/>
          <g>
            <path class="cls-3" d="m78.13,251.07s-5.08-22.7-6.09-54.3c-1.22-37.8,3.39-88.33,29.49-127.97,13.47-20.45,33.64-42.89,60.71-54.29,13.97-5.89,29.77-7.3,44.64-3.63,22.23,5.52,50.47,24.67,46.93,61.67"/>
            <path class="cls-3" d="m362.39,251.07c12.23-16.9,22.66-33.35,31.37-49.18,57.45-104.52,39.87-182.92-31.37-194.73-53.81-8.92-89.93,34.52-108.42,65.48-9.7,16.25-14.55,29.06-14.55,29.06,0,0-13.33,25.29-15.46,42.88"/>
            <path class="cls-3" d="m261.32,274.45c8.83-28.49,26.63-42.62,26.63-42.62"/>
            <path class="cls-3" d="m394.18,202.08c179.24,200.71-182.02,300.04-141.65,105.59.3-1.46,1.47-6.1,2.89-11.51,1.92-7.38,4.31-16.19,5.59-20.32"/>
            <path class="cls-3" d="m254.47,295.95s-33.37,3.37-54.95-11.6c-6.76-4.69-12.36-11.18-15.42-20.14-2.9-8.55-4.69-17.43-1.31-25.82"/>
            <path class="cls-3" d="m199.27,285.1c40.64,232.7-344.83,116.25-127.27-88.33"/>
          </g>
        </g>
        <g>
          <path class="cls-3" d="m357.19,33.47s34.51-.74,35.49,29.54"/>
          <line class="cls-3" x1="394.63" y1="77.99" x2="394.63" y2="77.66"/>
        </g>
      </g>
    </g>
  </g>
</svg>