<svg width="537" height="537" viewBox="0 0 537 537" fill="none" xmlns="http://www.w3.org/2000/svg">
<path d="M57.1973 229.212L73.7367 177.807L154.652 203.841L217.579 233.543L225.708 224.603L185.263 167.469L146.83 91.0236L194.337 67.4408L233.076 142.934L257.163 208.461L269.166 207.071L281.732 138.63L307.767 57.7155L359.172 74.255L333.137 155.17L303.436 218.097L312.376 226.226L370.155 187.04L445.649 148.301L470.49 195.161L394.69 234.852L328.517 257.682L329.908 269.684L398.348 282.251L479.263 308.285L462.723 359.69L381.809 333.655L318.575 304.906L310.752 312.894L350.891 370.98L389.63 446.473L341.817 471.008L303.078 395.514L279.297 329.035L267.294 330.426L254.728 398.866L228.693 479.781L177.289 463.242L203.323 382.327L233.024 319.4L224.084 311.271L165.999 351.409L90.5053 390.148L65.9705 342.336L141.464 303.596L207.943 279.815L206.246 268.764L138.112 255.246L57.1973 229.212Z" fill="#FFB0B0"/>
</svg>
